Coordinates
version=1
nRows=5
nColumns=46
inDegrees=yes

Units are S.I. units (second, meters, Newtons, ...)
Angles are in degrees.

endheader
time	pelvis_tilt	pelvis_list	pelvis_rotation	pelvis_tx	pelvis_ty	pelvis_tz	bb_angle	bb_tx	bb_ty	bb_tz	hip_flexion_r	hip_adduction_r	hip_rotation_r	knee_angle_r	knee_angle_r_beta	ankle_angle_r	subtalar_angle_r	mtp_angle_r	crank_angle_r	hip_flexion_l	hip_adduction_l	hip_rotation_l	knee_angle_l	knee_angle_l_beta	ankle_angle_l	subtalar_angle_l	mtp_angle_l	crank_angle_l	lumbar_extension	lumbar_bending	lumbar_rotation	arm_flex_r	arm_add_r	arm_rot_r	elbow_flex_r	pro_sup_r	wrist_flex_r	wrist_dev_r	arm_flex_l	arm_add_l	arm_rot_l	elbow_flex_l	pro_sup_l	wrist_flex_l	wrist_dev_l
      2.50500000	    -13.52162508	      4.18764383	      2.57977525	      0.13740182	      1.15640244	     -0.24189910	      0.00000000	      0.50000000	      0.00000000	      0.25000000	     46.58319040	     -8.35940316	     -3.28093510	     42.56908048	      0.74297061	     -9.29885685	     -7.03673242	      0.00000000	      0.00000000	     86.59011602	     -4.57864962	      0.86873905	    112.90202449	      1.97051206	      0.70818894	     -0.72748234	      0.00000000	      0.00000000	    -57.98277309	     -0.72718878	     -4.63254814	     89.67754793	     -4.69691024	     25.52340558	     39.50612911	     26.18142620	      0.00000000	      0.00000000	     89.53666115	    -12.32851379	     33.27362374	     45.37150765	     30.56143874	      0.00000000	      0.00000000
      2.51000000	    -13.28816901	      4.30240466	      2.69182071	      0.13754339	      1.15701813	     -0.24129854	      0.00000000	      0.50000000	      0.00000000	      0.25000000	     46.25597175	     -8.67128053	     -3.73975107	     42.88058175	      0.74840734	     -9.81765070	     -6.86275372	      0.00000000	      0.00000000	     86.65045379	     -4.46244303	      0.79279236	    112.78874945	      1.96853504	      0.95871285	     -0.71081080	      0.00000000	      0.00000000	    -58.64317922	     -0.94647343	     -4.95298221	     89.65643332	     -4.88407108	     24.33056895	     40.68170484	     27.61848229	      0.00000000	      0.00000000	     89.50338279	    -12.67923837	     32.05753270	     47.05128652	     31.78921912	      0.00000000	      0.00000000
      2.51500000	    -13.35238473	      4.38863063	      2.73817322	      0.13776001	      1.15681391	     -0.24029792	      0.00000000	      0.50000000	      0.00000000	      0.25000000	     46.27669098	     -8.79394089	     -3.88548954	     43.23324058	      0.75456239	    -10.22038336	     -7.03755291	      0.00000000	      0.00000000	     87.02268774	     -4.48271248	      0.79072403	    112.65356907	      1.96617569	      1.25141230	     -0.28023527	      0.00000000	      0.00000000	    -58.53000267	     -1.30468180	     -5.41403037	     89.67230595	     -4.34344648	     24.49980945	     39.37616687	     27.96141176	      0.00000000	      0.00000000	     89.53297726	    -13.29440905	     33.35870079	     47.10438826	     32.26995456	      0.00000000	      0.00000000
      2.52000000	    -13.13499079	      4.38743249	      2.89528634	      0.13795241	      1.15738350	     -0.23967829	      0.00000000	      0.50000000	      0.00000000	      0.25000000	     45.96076578	     -8.96923681	     -4.24044313	     43.57198692	      0.76047463	    -10.73427099	     -7.06702230	      0.00000000	      0.00000000	     87.06164719	     -4.37327171	      0.82409484	    112.48363354	      1.96320976	      1.56011614	     -0.16554871	      0.00000000	      0.00000000	    -59.01777996	     -1.44783386	     -5.68707638	     89.66366788	     -4.37087569	     23.98173528	     39.80203044	     28.87354658	      0.00000000	      0.00000000	     89.53908249	    -13.57610746	     32.89861776	     48.05995450	     33.05138094	      0.00000000	      0.00000000
      2.52500000	    -13.07830994	      4.40677591	      2.99979130	      0.13810396	      1.15749829	     -0.23890901	      0.00000000	      0.50000000	      0.00000000	      0.25000000	     45.91691603	     -9.10676981	     -4.47773363	     44.05401273	      0.76888757	    -11.26511503	     -7.09261815	      0.00000000	      0.00000000	     87.25573819	     -4.34791865	      0.84609226	    112.30781413	      1.96014113	      1.91431050	      0.11286615	      0.00000000	      0.00000000	    -59.23839019	     -1.72179618	     -6.05302662	     89.65993154	     -4.31245552	     23.86384005	     39.65974128	     29.51834447	      0.00000000	      0.00000000	     89.53991491	    -13.90987773	     32.96310421	     48.65271850	     33.63896687	      0.00000000	      0.00000000
